<svg xmlns="http://www.w3.org/2000/svg" width="400" height="600" viewBox="0 0 400 600" role="img" aria-label="Poster: Escolta 1951">
<title>Escolta 1951 — poster</title>
<desc>Synthetic poster art authored for the Taracine design study. Fictional film. Palette #E58C74 #1F6F63 #B8893A; motif deco.</desc>
<metadata>provenance: authored SVG, generated by scratchpad/posters.js for the Taracine portfolio study; synthetic; no photographic source</metadata>
<rect width="400" height="600" fill="#E58C74"/><rect x="70" y="60" width="260" height="480" fill="#B8893A"/><rect x="90" y="80" width="220" height="440" fill="#E58C74"/><g fill="#1F6F63"><rect x="110" y="100" width="180" height="30"/><rect x="130" y="140" width="140" height="20"/><rect x="150" y="170" width="100" height="14"/></g><g fill="#B8893A"><circle cx="100" cy="92" r="3"/><circle cx="122" cy="92" r="3"/><circle cx="144" cy="92" r="3"/><circle cx="166" cy="92" r="3"/><circle cx="188" cy="92" r="3"/><circle cx="210" cy="92" r="3"/><circle cx="232" cy="92" r="3"/><circle cx="254" cy="92" r="3"/><circle cx="276" cy="92" r="3"/><circle cx="298" cy="92" r="3"/><circle cx="100" cy="508" r="3"/><circle cx="122" cy="508" r="3"/><circle cx="144" cy="508" r="3"/><circle cx="166" cy="508" r="3"/><circle cx="188" cy="508" r="3"/><circle cx="210" cy="508" r="3"/><circle cx="232" cy="508" r="3"/><circle cx="254" cy="508" r="3"/><circle cx="276" cy="508" r="3"/><circle cx="298" cy="508" r="3"/></g><rect x="170" y="220" width="60" height="300" fill="#1F6F63"/><g fill="#E58C74"><rect x="182" y="240" width="36" height="40"/><rect x="182" y="300" width="36" height="40"/><rect x="182" y="360" width="36" height="40"/><rect x="182" y="420" width="36" height="40"/></g><g fill="#B8893A"><rect x="110" y="220" width="40" height="300"/><rect x="250" y="220" width="40" height="300"/></g>
</svg>