<svg xmlns="http://www.w3.org/2000/svg" width="400" height="600" viewBox="0 0 400 600" role="img" aria-label="Poster: Night Market">
<title>Night Market — poster</title>
<desc>Synthetic poster art authored for the Taracine design study. Fictional film. Palette #0B0B0E #E8352B #F6C945; motif eye.</desc>
<metadata>provenance: authored SVG, generated by scratchpad/posters.js for the Taracine portfolio study; synthetic; no photographic source</metadata>
<rect width="400" height="600" fill="#0B0B0E"/><circle cx="30" cy="60" r="7" fill="#F6C945"/><circle cx="79" cy="78" r="7" fill="#F6C945"/><circle cx="128" cy="60" r="7" fill="#F6C945"/><circle cx="177" cy="78" r="7" fill="#F6C945"/><circle cx="226" cy="60" r="7" fill="#F6C945"/><circle cx="275" cy="78" r="7" fill="#F6C945"/><circle cx="324" cy="60" r="7" fill="#F6C945"/><circle cx="373" cy="78" r="7" fill="#F6C945"/><path d="M20 90 q180 40 360 0" fill="none" stroke="#F6C945" stroke-width="2"/><path d="M60 300 q140 -160 280 0 q-140 160 -280 0z" fill="#F6C945"/><circle cx="200" cy="300" r="62" fill="#E8352B"/><circle cx="200" cy="300" r="30" fill="#0B0B0E"/><circle cx="216" cy="284" r="8" fill="#F6C945"/><g fill="#E8352B"><rect x="40" y="430" width="320" height="6"/><rect x="40" y="450" width="320" height="6"/><rect x="40" y="470" width="320" height="6"/></g>
</svg>