<svg xmlns="http://www.w3.org/2000/svg" width="400" height="600" viewBox="0 0 400 600" role="img" aria-label="Poster: The Second Screening">
<title>The Second Screening — poster</title>
<desc>Synthetic poster art authored for the Taracine design study. Fictional film. Palette #1C1A1F #B8893A #F6EBDC; motif reel.</desc>
<metadata>provenance: authored SVG, generated by scratchpad/posters.js for the Taracine portfolio study; synthetic; no photographic source</metadata>
<rect width="400" height="600" fill="#1C1A1F"/><g transform="translate(200 240)"><circle r="150" fill="#B8893A"/><circle r="130" fill="#1C1A1F"/><circle r="120" fill="#B8893A"/><circle cx="70" cy="0" r="30" fill="#1C1A1F"/><circle cx="35.00000000000001" cy="60.6217782649107" r="30" fill="#1C1A1F"/><circle cx="-34.999999999999986" cy="60.62177826491071" r="30" fill="#1C1A1F"/><circle cx="-70" cy="8.572527594031473e-15" r="30" fill="#1C1A1F"/><circle cx="-35.00000000000003" cy="-60.621778264910695" r="30" fill="#1C1A1F"/><circle cx="35.00000000000001" cy="-60.6217782649107" r="30" fill="#1C1A1F"/><circle r="18" fill="#1C1A1F"/></g><path d="M60 400 q140 120 280 0 v200 h-280z" fill="#F6EBDC"/><g fill="#1C1A1F"><rect x="70" y="500" width="14" height="20"/><rect x="112" y="500" width="14" height="20"/><rect x="154" y="500" width="14" height="20"/><rect x="196" y="500" width="14" height="20"/><rect x="238" y="500" width="14" height="20"/><rect x="280" y="500" width="14" height="20"/><rect x="322" y="500" width="14" height="20"/><rect x="364" y="500" width="14" height="20"/></g>
</svg>